<?xml version="1.0" standalone="no"?>
<!DOCTYPE svg PUBLIC "-//W3C//DTD SVG 20010904//EN"
 "http://www.w3.org/TR/2001/REC-SVG-20010904/DTD/svg10.dtd">
<svg version="1.0" xmlns="http://www.w3.org/2000/svg"
 width="700.000000pt" height="700.000000pt" viewBox="0 0 700.000000 700.000000"
 preserveAspectRatio="xMidYMid meet">
<metadata>
Created by potrace 1.11, written by Peter Selinger 2001-2013
</metadata>
<g transform="translate(0.000000,700.000000) scale(0.100000,-0.100000)"
fill="#000000" stroke="none">
<path d="M5189 6942 c-12 -32 -28 -70 -35 -87 -6 -16 -119 -300 -249 -630
-130 -330 -243 -613 -250 -630 -7 -16 -38 -93 -68 -170 -51 -130 -460 -1162
-488 -1230 -7 -16 -13 -34 -15 -40 -1 -5 -25 -66 -53 -134 -28 -69 -51 -126
-51 -127 0 -1 98 38 218 86 319 128 1234 498 1637 660 521 211 1117 451 1142
461 22 8 22 8 -22 113 -131 314 -305 598 -528 866 -110 132 -341 358 -472 463
-211 169 -486 342 -687 430 l-56 25 -23 -56z m484 -831 c55 -25 129 -105 144
-156 62 -208 -80 -397 -287 -382 -219 15 -338 254 -217 437 38 58 78 90 141
112 63 23 155 18 219 -11z m-573 -1089 c54 -22 110 -106 110 -166 0 -78 -63
-165 -133 -184 -159 -44 -298 123 -222 268 43 83 151 119 245 82z"/>
<path d="M3279 6976 c-2 -2 -47 -6 -99 -10 -52 -3 -106 -8 -120 -10 -14 -2
-46 -7 -71 -10 -429 -59 -899 -224 -1279 -449 -39 -23 -202 -130 -266 -175
-40 -27 -167 -126 -190 -147 -6 -5 -44 -39 -85 -75 -543 -478 -928 -1134
-1085 -1845 -17 -76 -43 -220 -49 -270 -4 -33 -9 -69 -11 -80 -19 -101 -26
-569 -11 -715 82 -798 393 -1492 922 -2059 103 -111 262 -259 360 -337 28 -21
52 -42 55 -45 3 -3 58 -43 123 -89 339 -239 721 -418 1107 -519 145 -38 345
-78 430 -86 36 -4 71 -8 77 -10 76 -25 636 -24 793 0 14 2 63 9 110 15 183 24
578 126 715 185 17 7 57 23 90 35 170 65 499 244 673 367 546 386 954 889
1212 1493 70 165 148 394 175 518 2 9 13 59 25 111 11 51 22 105 24 120 2 14
11 76 20 136 9 61 20 155 23 210 13 187 6 572 -12 660 -2 11 -7 45 -10 75 -5
55 -11 92 -20 140 -10 49 -15 75 -20 100 -10 52 -14 68 -38 165 -26 100 -110
361 -120 371 -3 3 -20 -1 -39 -9 -18 -9 -114 -48 -213 -87 -99 -39 -189 -75
-200 -80 -11 -5 -146 -59 -300 -120 -154 -61 -300 -119 -325 -130 -25 -11
-340 -137 -700 -280 -360 -143 -664 -265 -675 -270 -40 -18 -652 -260 -658
-260 -4 0 0 15 7 33 8 17 21 48 30 69 9 20 16 39 16 42 0 3 11 30 25 60 14 30
25 60 25 65 0 6 5 19 10 29 6 9 35 80 65 157 31 77 62 154 70 172 8 17 15 36
15 42 0 6 5 19 10 29 6 9 71 170 146 357 74 187 141 354 149 372 8 17 15 35
15 40 0 6 6 23 14 39 7 16 44 106 81 199 37 94 73 184 80 200 6 17 25 62 40
100 15 39 33 84 40 100 60 142 426 1067 424 1070 -23 22 -377 146 -530 186
-107 27 -127 31 -199 43 -14 2 -36 7 -50 10 -39 9 -78 15 -175 27 -49 5 -106
13 -125 15 -41 6 -515 15 -521 10z m-369 -698 c323 -100 422 -497 183 -733
-51 -50 -142 -99 -212 -114 -24 -5 -79 -8 -121 -6 -316 13 -508 371 -350 650
66 116 193 200 330 218 39 5 132 -3 170 -15z m-1233 -1609 c47 -23 97 -70 121
-114 21 -39 23 -50 29 -113 10 -110 -54 -218 -157 -265 -63 -29 -170 -28 -225
1 -136 74 -193 229 -130 357 29 60 39 72 88 110 73 55 189 65 274 24z m4153
-970 c127 -39 222 -120 279 -239 33 -70 36 -82 37 -175 1 -117 -20 -186 -84
-270 -196 -258 -598 -220 -737 70 -36 74 -45 109 -46 185 -6 223 153 404 386
443 33 5 127 -3 165 -14z m-3456 -148 c10 -1 36 -18 57 -40 33 -33 39 -45 39
-82 0 -110 -114 -175 -205 -119 -34 21 -65 73 -65 109 0 30 24 83 46 102 23
19 73 37 94 33 8 -1 23 -3 34 -3z m1558 -959 c50 -22 119 -89 142 -137 56
-118 30 -253 -66 -341 -93 -85 -221 -102 -333 -42 -58 31 -89 62 -120 124 -84
165 9 371 186 413 59 14 138 7 191 -17z m-2015 -146 c176 -62 281 -207 281
-388 0 -231 -201 -419 -431 -402 -212 15 -377 189 -378 397 0 78 22 163 58
219 58 92 165 168 266 187 56 11 154 5 204 -13z m1759 -1099 c41 -26 80 -66
106 -107 19 -32 39 -120 33 -151 -13 -69 -19 -87 -36 -115 -31 -50 -70 -85
-128 -112 -127 -59 -296 5 -352 134 -66 149 1 308 156 371 51 21 175 10 221
-20z"/>
</g>
</svg>
